<?xml version="1.0" encoding="UTF-8" standalone="no"?>
<!-- Created with Inkscape (http://www.inkscape.org/) -->

<svg
   width="89.906425mm"
   height="17.061874mm"
   viewBox="0 0 89.906425 17.061874"
   version="1.1"
   id="svg1"
   xml:space="preserve"
   xmlns="http://www.w3.org/2000/svg"
   xmlns:svg="http://www.w3.org/2000/svg"><defs
     id="defs1" /><g
     id="layer1"
     transform="translate(-63.596588,-82.472614)"><path
       style="fill:#ffcc00;stroke-width:0.92158"
       d="m 64.87407,99.042189 c -0.981946,-0.629095 -1.402122,-1.65637 -1.245574,-3.045256 0.249244,-2.211293 2.065947,-3.953411 5.21572,-5.001588 1.406194,-0.46795 1.550437,-0.578641 1.550437,-1.189777 0,-0.762377 -0.660838,-1.481375 -1.360291,-1.480011 -0.768204,0.0018 -1.938569,0.856728 -2.784628,2.034848 -1.301702,1.81259 -1.950947,1.785284 -1.950947,-0.08202 0,-1.781137 1.043185,-2.546859 3.872602,-2.842594 2.64033,-0.275967 5.132282,0.809276 6.191989,2.696625 0.16338,0.29098 0.351829,2.178439 0.440309,4.410054 0.08508,2.145741 0.236843,4.093368 0.337259,4.328058 0.166252,0.388565 -0.01642,0.42671 -2.043252,0.42671 -2.137593,0 -2.236837,-0.02415 -2.503573,-0.609588 -0.350564,-0.769397 -0.426163,-0.764347 -1.823663,0.121915 -1.386177,0.879095 -2.759413,0.961088 -3.896388,0.232662 z m 5.126603,-2.152143 c 0.338676,-0.374226 0.400399,-0.86846 0.342584,-2.743138 -0.07027,-2.27855 -0.07268,-2.286421 -0.680108,-2.218583 -1.440825,0.160899 -2.452277,2.336232 -1.951308,4.19669 0.139202,0.516951 0.38831,0.994615 0.553573,1.061466 0.641944,0.259673 1.339891,0.140449 1.735259,-0.296435 z m 20.144586,2.478788 c -0.496142,-0.181367 -1.445341,-1.060459 -1.788657,-1.656555 -0.167561,-0.290933 -0.330673,-2.2091 -0.404321,-4.75478 -0.121417,-4.196791 -0.132491,-4.268388 -0.672079,-4.345018 -0.80356,-0.114128 -0.677921,-0.843061 0.213303,-1.237562 0.419063,-0.185495 1.529759,-0.980358 2.468215,-1.766364 0.938456,-0.786003 1.802568,-1.429099 1.92025,-1.429099 0.117681,0 0.213966,0.768079 0.213966,1.706845 v 1.706839 h 0.731504 c 0.568947,0 0.731504,0.108369 0.731504,0.487673 0,0.383119 -0.162557,0.487663 -0.758239,0.487663 h -0.758239 l 0.08895,4.492636 c 0.08624,4.355626 0.10691,4.51175 0.677922,5.119569 0.323935,0.344809 0.542822,0.667359 0.486414,0.716774 -0.651039,0.570366 -2.232444,0.806972 -3.150493,0.471379 z M 103.67808,98.96733 c -1.43855,-0.671313 -2.86878,-2.167903 -3.28921,-3.441812 -0.432082,-1.309215 -0.21472,-3.687664 0.46509,-5.089231 1.08559,-2.238157 3.83564,-3.471941 6.41283,-2.877061 1.33057,0.307135 2.87291,1.299686 2.87291,1.848818 0,0.340644 -2.80325,3.061792 -3.15417,3.061792 -0.1102,0 -0.33621,-0.32799 -0.50226,-0.728877 -0.16606,-0.400878 -0.72831,-1.114089 -1.24946,-1.584924 -2.1297,-1.924056 -4.22702,-0.388833 -3.00034,2.196217 1.351,2.847036 5.76432,4.954311 7.70829,3.680577 0.77227,-0.506012 1.03466,-0.214875 0.67111,0.744609 -0.91948,2.426728 -4.20441,3.464062 -6.93479,2.189892 z m 9.70665,0.340791 c -1.2296,-0.525789 -1.40659,-1.235781 -1.54981,-6.216891 -0.0734,-2.554564 -0.22235,-4.83669 -0.33089,-5.07138 -0.18159,-0.392667 0.0195,-0.42671 2.51952,-0.42671 2.61051,0 2.70696,0.01843 2.46443,0.471637 -0.2678,0.5004 -0.35695,7.262629 -0.10441,7.92072 0.0886,0.230846 0.43621,0.38569 0.86587,0.38569 1.16651,0 1.48144,-1.114632 1.37102,-4.852532 -0.0499,-1.689652 -0.17977,-3.264115 -0.28857,-3.498805 -0.18205,-0.392694 0.0188,-0.42671 2.51902,-0.42671 2.61052,0 2.70698,0.01843 2.46444,0.471637 -0.15002,0.280317 -0.25241,2.462968 -0.25241,5.380394 0,2.917436 0.10239,5.100087 0.25241,5.380392 0.2407,0.449749 0.15244,0.471637 -1.90191,0.471637 -2.35663,0 -2.73953,-0.177211 -2.73953,-1.267934 0,-0.375507 -0.0782,-0.682744 -0.17364,-0.682744 -0.0955,0 -0.63653,0.454284 -1.20226,1.009508 -0.86927,0.853122 -1.21066,1.022757 -2.20374,1.095055 -0.64633,0.04709 -1.41561,-0.01723 -1.70954,-0.142964 z m 20.61473,-0.09315 c -3.25963,-1.2124 -4.769,-4.920357 -3.29162,-8.086223 1.49328,-3.199891 5.19426,-4.583569 8.1824,-3.059129 3.59902,1.836082 4.26351,6.660921 1.3224,9.602022 -0.47394,0.473941 -1.26218,1.054082 -1.75163,1.289195 -1.14846,0.551676 -3.32783,0.675813 -4.46155,0.254135 z m 3.43215,-0.875525 c 1.77588,-1.775884 0.0539,-10.2632 -2.02221,-9.967106 -2.11448,0.301559 -1.6409,7.831124 0.62536,9.942453 0.65686,0.611963 0.80689,0.614608 1.39685,0.02461 z m 8.06411,0.934294 c -1.49706,-0.29179 -2.37554,-0.680344 -2.54673,-1.126444 -0.18329,-0.477664 0.94172,-2.956086 1.42623,-3.142015 0.2017,-0.07741 1.00266,0.242799 1.77991,0.711542 1.83303,1.105463 3.04564,1.471422 4.37801,1.321242 1.20279,-0.135565 2.03379,-0.737154 2.03379,-1.472307 0,-0.457131 -0.1149,-0.477157 -1.93271,-0.336985 -4.68957,0.361637 -7.82302,-1.344907 -7.81977,-4.258795 0.002,-1.883432 1.65841,-3.195043 4.44888,-3.523005 2.41197,-0.283478 5.78019,0.661168 6.19297,1.736873 0.20335,0.529909 -0.38306,1.799523 -1.02561,2.220537 -0.72991,0.478263 -1.65291,0.08819 -3.67973,-1.555027 -0.82474,-0.668662 -1.79647,-1.290267 -2.15938,-1.381347 -0.88567,-0.222294 -1.88499,0.424065 -1.78134,1.152178 0.0801,0.562864 0.79246,0.8466 4.42961,1.764392 3.03788,0.766579 4.62044,2.605361 4.19484,4.874013 -0.22462,1.197308 -1.59767,2.570993 -2.98536,2.986764 -1.11536,0.334165 -3.31994,0.346799 -4.95361,0.02838 z M 75.994271,98.825563 c 0.150017,-0.280305 0.252414,-2.462956 0.252414,-5.380392 0,-2.917426 -0.102397,-5.100077 -0.252414,-5.380394 -0.240701,-0.449749 -0.152448,-0.471637 1.90191,-0.471637 2.356634,0 2.739527,0.17722 2.739527,1.267937 0,0.873464 0.323169,0.867124 0.953933,-0.01871 1.023549,-1.437443 3.587224,-1.933105 4.625945,-0.894384 0.360451,0.360449 0.316251,0.539899 -0.545137,2.213211 -0.515565,1.001527 -1.078596,1.820958 -1.251181,1.820958 -0.172583,0 -0.497453,-0.280307 -0.721932,-0.622904 -0.346853,-0.529365 -0.560751,-0.611754 -1.42439,-0.548626 -1.494846,0.109253 -1.66683,0.597552 -1.572044,4.463303 0.04275,1.743416 0.167031,3.361864 0.276187,3.596554 0.182661,0.392731 -0.01786,0.42671 -2.518384,0.42671 -2.610509,0 -2.706968,-0.01843 -2.464434,-0.471637 z m 18.287598,0 c 0.145154,-0.271218 0.252413,-2.205817 0.252413,-4.552702 0,-3.439861 -0.06282,-4.150464 -0.39979,-4.522819 -0.378937,-0.418719 -0.304478,-0.487027 1.427448,-1.309518 1.004982,-0.477268 2.144987,-0.890597 2.533344,-0.91853 l 0.706105,-0.05078 0.121917,5.6082 c 0.06705,3.084509 0.210687,5.745346 0.319184,5.912982 0.153631,0.237371 -0.401112,0.304794 -2.507885,0.304794 -2.598944,0 -2.69524,-0.01852 -2.452736,-0.471637 z m 30.536671,0.179035 c -0.21351,-0.213511 -0.2926,-2.120994 -0.2926,-7.057371 0,-6.738266 -0.002,-6.766294 -0.54862,-7.151232 -0.46595,-0.328214 -0.49351,-0.421761 -0.18288,-0.620748 0.83923,-0.537599 3.91426,-1.702633 4.49399,-1.702633 h 0.62654 v 7.786832 c 0,4.469366 0.10131,8.053307 0.2378,8.412296 l 0.2378,0.625458 h -2.13971 c -1.33911,0 -2.2492,-0.109484 -2.43232,-0.292602 z M 94.718239,86.479844 c -0.09999,-0.101751 0.284051,-0.393127 0.85342,-0.647502 0.56937,-0.254365 1.330413,-0.744579 1.691207,-1.089366 0.408072,-0.389967 0.806181,-0.569251 1.053399,-0.474385 0.575979,0.221025 0.357998,1.116205 -0.411092,1.688229 -0.667341,0.496354 -2.859623,0.856139 -3.186934,0.523024 z"
       id="path1" /></g></svg>
