<?xml version="1.0" encoding="UTF-8" standalone="no"?>
<!-- Created with Inkscape (http://www.inkscape.org/) -->

<svg
   width="113.2719mm"
   height="14.65067mm"
   viewBox="0 0 113.2719 14.65067"
   version="1.1"
   id="svg1"
   xml:space="preserve"
   xmlns="http://www.w3.org/2000/svg"
   xmlns:svg="http://www.w3.org/2000/svg"><defs
     id="defs1" /><g
     id="layer1"
     transform="translate(-53.69198,-120.267)"><path
       style="fill:#ffcc00;stroke-width:0.92158"
       d="m 106.91947,130.37321 c 0.0504,-3.20009 -0.0126,-4.64594 -0.21304,-4.8874 -0.23173,-0.27921 -0.0865,-0.43007 0.78188,-0.81231 1.73383,-0.76318 2.40756,-0.87214 2.40756,-0.38938 0,0.22687 0.0823,0.37241 0.18287,0.3234 0.10059,-0.049 0.47623,-0.23652 0.83476,-0.41671 1.94089,-0.97539 4.11178,1.14493 4.09617,4.00078 -0.006,1.01179 -0.80991,2.68887 -1.50955,3.1473 -1.11016,0.72739 -1.97927,0.73694 -2.81829,0.031 l -0.76582,-0.64439 -0.071,2.02483 -0.0711,2.02484 -1.463,0.0713 -1.46302,0.0712 z m 4.85642,-0.5967 c 0.37882,-0.75146 0.40449,-2.59507 0.0502,-3.61117 -0.32682,-0.93754 -1.14948,-1.26479 -1.60692,-0.63921 -0.39353,0.53819 -0.43928,3.82202 -0.063,4.52504 0.34932,0.65274 1.22722,0.50387 1.61968,-0.27466 z m -57.119655,1.59601 c -0.410676,-0.41067 -0.606172,-0.88893 -0.622938,-1.52397 -0.01344,-0.509 -0.09573,-1.99536 -0.182876,-3.30301 l -0.158441,-2.37756 1.599062,1.7e-4 1.599062,1.6e-4 -0.104378,2.18316 c -0.125788,2.63095 0.03227,3.42504 0.681758,3.42504 0.789514,0 1.030992,-0.85155 0.940955,-3.31823 l -0.0836,-2.29034 1.584926,1.9e-4 1.584924,1.8e-4 v 3.78949 3.78949 l -1.463008,-0.071 c -1.306065,-0.0634 -1.471366,-0.12987 -1.540925,-0.61964 -0.09513,-0.6698 -0.429329,-0.70779 -0.761777,-0.0866 -0.237671,0.44409 -1.424796,1.00098 -2.13379,1.00098 -0.187247,0 -0.609776,-0.26933 -0.938953,-0.5985 z m 13.061042,0.29521 c -0.986154,-0.51511 -1.216486,-1.30205 -1.220384,-4.16952 -0.0033,-2.43739 -0.04171,-2.65401 -0.491264,-2.77158 -0.638664,-0.167 -0.617491,-0.42075 0.06096,-0.73057 0.301745,-0.13779 1.025343,-0.64917 1.607995,-1.13639 0.582652,-0.48723 1.158712,-0.88587 1.280131,-0.88587 0.121421,0 0.220766,0.49377 0.220766,1.09726 0,0.9347 0.07225,1.09725 0.487668,1.09725 0.268219,0 0.48767,0.10973 0.48767,0.24384 0,0.13411 -0.219451,0.24384 -0.48767,0.24384 -0.458859,0 -0.48758,0.16205 -0.486166,2.74313 0.0011,1.97111 0.105244,2.94207 0.370113,3.44996 0.202735,0.38876 0.331216,0.74423 0.285511,0.78993 -0.277664,0.27766 -1.604255,0.29568 -2.115329,0.0287 z m 21.762474,-0.16407 c -1.602082,-0.74509 -2.52452,-2.6522 -2.136758,-4.41767 0.238546,-1.08609 1.693011,-2.61414 2.805524,-2.94746 3.259159,-0.97647 6.056986,2.61232 4.372773,5.60897 -1.04948,1.8673 -3.195334,2.61477 -5.041539,1.75616 z m 2.870089,-1.27687 c 0.453397,-1.68379 -0.276715,-4.79584 -1.269762,-5.41226 -1.42771,-0.88622 -1.688934,3.76835 -0.328052,5.84532 0.609891,0.93081 1.279424,0.74934 1.597814,-0.43306 z m 5.03546,1.48993 c -1.907096,-0.32042 -2.187117,-0.8573 -1.234751,-2.36742 l 0.346315,-0.54914 1.450102,0.73201 c 1.502421,0.75842 2.618254,0.91441 3.430714,0.47959 0.2594,-0.13882 0.47164,-0.41313 0.47164,-0.60957 0,-0.28207 -0.38623,-0.35718 -1.83659,-0.35718 -2.094839,0 -3.215033,-0.37892 -3.9745,-1.34443 -0.741193,-0.94227 -0.681159,-1.95422 0.166207,-2.80158 0.824708,-0.82472 1.995696,-1.0906 3.806613,-0.86434 2.20276,0.27522 2.92458,1.17754 1.89907,2.37395 -0.44278,0.51657 -1.05317,0.31024 -2.619783,-0.88558 -1.222045,-0.93281 -2.171041,-1.11329 -2.421531,-0.46052 -0.226682,0.59073 0.08599,0.79397 1.96497,1.27729 2.735004,0.70351 3.551984,1.35751 3.551984,2.84342 0,1.12297 -0.67033,2.05028 -1.76907,2.44724 -0.960678,0.34708 -1.580492,0.36362 -3.23139,0.0863 z m 20.92286,0.0897 c -0.85634,-0.22631 -2.11334,-1.33633 -2.46422,-2.17609 -1.16927,-2.79845 1.18214,-6.02374 4.10574,-5.63161 2.55343,0.34249 4.12126,3.28051 2.94389,5.51666 -0.87623,1.66419 -2.98,2.71531 -4.58541,2.29104 z m 2.22079,-1.19432 c 0.0866,-0.3451 0.10597,-1.43009 0.043,-2.41108 -0.12869,-2.00526 -0.7528,-3.37697 -1.59211,-3.49923 -1.34593,-0.19605 -1.18105,4.52996 0.2168,6.21428 0.45178,0.54435 1.15993,0.38279 1.3323,-0.30397 z m 5.28193,0.99746 c -1.64934,-0.71702 -2.3521,-3.00758 -1.60795,-5.24095 0.67741,-2.03306 2.58478,-3.06043 3.87298,-2.08609 0.26031,0.19689 0.5556,0.36149 0.65618,0.36575 0.27613,0.0117 0.21945,-2.13538 -0.0609,-2.30867 -0.46735,-0.28884 -0.23537,-0.52337 1.04101,-1.05239 2.26804,-0.94005 2.12884,-1.23874 2.12884,4.56805 0,2.80532 0.0666,5.27414 0.148,5.48627 0.12516,0.32615 -0.0854,0.3857 -1.36391,0.3857 -1.30494,0 -1.52932,-0.0665 -1.63897,-0.48583 -0.12254,-0.46859 -0.15265,-0.46427 -0.8493,0.12193 -0.8201,0.69007 -1.21002,0.73135 -2.32592,0.24623 z m 2.85168,-1.57314 c 0.39991,-0.74726 0.32236,-4.28729 -0.10165,-4.63918 -0.61876,-0.51353 -1.31981,-0.0622 -1.61747,1.04129 -0.30688,1.13766 -0.14818,3.2063 0.28611,3.72959 0.40394,0.48673 1.13815,0.41925 1.43301,-0.1317 z m 6.50803,1.59031 c -1.87765,-0.69217 -2.76298,-2.16923 -2.53145,-4.22337 0.30225,-2.68155 2.88629,-4.13691 5.38373,-3.03217 0.62323,0.27568 1.13315,0.65879 1.13315,0.85134 0,0.19255 -0.48353,0.74631 -1.07452,1.23059 l -1.07453,0.88049 -0.50337,-0.85315 c -0.91038,-1.54298 -2.46948,-1.74111 -2.67547,-0.34 -0.28188,1.9172 3.22022,4.39732 4.94544,3.50226 0.74352,-0.38573 0.9432,-0.16387 0.55046,0.61161 -0.69956,1.38131 -2.50814,1.97891 -4.15344,1.3724 z m 6.01301,0.10802 c -1.12661,-0.47344 -1.3958,-2.19817 -0.55531,-3.55811 0.46186,-0.74729 2.57352,-2.05761 3.31599,-2.05761 0.43765,0 0.63128,-0.41737 0.45349,-0.97752 -0.10601,-0.33401 -0.36926,-0.48548 -0.84378,-0.48548 -0.52054,0 -0.93381,0.28405 -1.68502,1.15821 -0.81971,0.95386 -1.03863,1.09368 -1.24082,0.79247 -1.01324,-1.50961 1.40471,-3.0659 4.00534,-2.57801 1.02696,0.19265 2.16716,1.10643 2.5261,2.02444 0.14526,0.37151 0.29665,1.80027 0.33641,3.17502 l 0.0724,2.49954 -1.40971,-2.4e-4 c -1.02797,-1.6e-4 -1.4477,-0.0993 -1.55005,-0.36598 -0.17818,-0.46434 -0.54931,-0.46535 -1.06032,-0.003 -0.5226,0.47295 -1.69176,0.65894 -2.36464,0.37617 z m 3.04419,-1.51929 c 0.36814,-0.36816 0.3973,-3.36492 0.0327,-3.36492 -0.6324,0 -1.20776,0.56844 -1.47367,1.45593 -0.24391,0.81412 -0.2258,1.05479 0.11895,1.58095 0.44369,0.67715 0.86766,0.78236 1.32199,0.32804 z m 6.14463,1.58689 c -1.46506,-0.24587 -2.19451,-0.60535 -2.19451,-1.08148 0,-0.45295 0.63792,-1.91965 0.83491,-1.91965 0.0499,0 0.71668,0.32917 1.48152,0.7315 0.76483,0.40233 1.71586,0.73151 2.11338,0.73151 0.90473,0 1.66605,-0.39392 1.66605,-0.862 0,-0.2821 -0.38645,-0.35718 -1.83848,-0.35718 -1.37481,0 -2.08665,-0.12662 -2.82254,-0.50204 -1.75611,-0.8959 -2.06419,-2.9077 -0.61137,-3.99239 0.54726,-0.40859 1.03018,-0.50326 2.54713,-0.49934 2.92876,0.007 4.25492,1.02576 2.98719,2.29349 -0.60563,0.60564 -1.13472,0.4548 -2.57261,-0.7334 -1.19504,-0.98752 -2.23108,-1.23262 -2.47903,-0.58649 -0.23107,0.60217 0.3215,1.01093 1.75604,1.29902 1.86787,0.37512 2.99166,0.95728 3.41016,1.76658 0.51819,1.00206 0.43686,1.79523 -0.27025,2.63557 -0.85563,1.01686 -2.20398,1.37898 -4.00759,1.0763 z m 6.92108,-0.18103 c -1.02443,-0.44589 -1.31289,-1.39228 -1.31289,-4.30738 0,-2.01301 -0.0673,-2.43144 -0.42671,-2.65361 -0.40352,-0.24943 -0.40208,-0.27989 0.0266,-0.56074 0.24935,-0.16335 0.97827,-0.70846 1.61984,-1.21137 0.64157,-0.5029 1.28794,-0.91438 1.43638,-0.91438 0.15731,0 0.26989,0.4577 0.26989,1.09726 0,0.81278 0.0948,1.09725 0.36575,1.09725 0.20116,0 0.36575,0.10973 0.36575,0.24384 0,0.13411 -0.16459,0.24384 -0.36575,0.24384 -0.55791,0 -0.53751,5.89361 0.022,6.35797 0.35257,0.29261 0.34834,0.35066 -0.0466,0.63944 -0.54195,0.39628 -0.98682,0.38896 -1.9543,-0.0322 z m 5.02681,0.18103 c -1.46506,-0.24587 -2.19451,-0.60535 -2.19451,-1.08148 0,-0.45295 0.63792,-1.91965 0.83493,-1.91965 0.0499,0 0.71666,0.32917 1.4815,0.7315 0.76484,0.40233 1.71586,0.73151 2.11339,0.73151 0.90472,0 1.66605,-0.39392 1.66605,-0.862 0,-0.2821 -0.38646,-0.35718 -1.83847,-0.35718 -5.16987,0 -4.88362,-3.41207 -3.43393,-4.49443 0.54726,-0.40859 1.0302,-0.50326 2.54714,-0.49934 2.92877,0.007 4.25492,1.02576 2.98719,2.29349 -0.60564,0.60564 -1.13472,0.4548 -2.57262,-0.7334 -1.19502,-0.98752 -2.23107,-1.23262 -2.47902,-0.58649 -0.23107,0.60217 0.32149,1.01093 1.75604,1.29902 1.86787,0.37512 2.99166,0.95728 3.41016,1.76658 0.51818,1.00206 0.43685,1.79523 -0.27025,2.63557 -0.85563,1.01686 -2.20399,1.37898 -4.0076,1.0763 z m -99.809644,-0.23767 c -0.0894,-0.0894 -0.162556,-2.1115 -0.162556,-4.49353 0,-3.62239 -0.06304,-4.39401 -0.38532,-4.71629 -0.351204,-0.3512 -0.270245,-0.43889 0.914379,-0.99038 1.12676,-0.52453 2.042641,-0.75302 2.20015,-0.54885 0.02587,0.0335 0.10816,2.50251 0.182876,5.48662 l 0.135848,5.42567 -1.36141,-3.5e-4 c -0.748776,-1.9e-4 -1.43456,-0.0735 -1.523967,-0.16289 z m 8.133856,-0.46291 c 0.317513,-0.83512 0.30443,-4.8903 -0.01772,-5.49224 -0.226659,-0.42352 -0.109615,-0.54536 1.036297,-1.07885 1.154425,-0.53744 1.819546,-0.72399 1.943752,-0.5452 0.02329,0.0335 0.105585,1.78935 0.182876,3.90183 l 0.140529,3.84087 -1.761767,-4.8e-4 -1.761765,-4.7e-4 z m 3.910003,0.11036 c 0.178922,-0.33433 0.246117,-1.66084 0.191455,-3.77958 l -0.08422,-3.26446 1.375615,1.3e-4 c 1.274075,1.2e-4 1.387231,0.0464 1.532968,0.62708 l 0.157353,0.62694 0.852903,-0.74886 c 1.274244,-1.1188 2.86508,-0.87921 3.325077,0.50078 0.08067,0.24198 0.362846,0.1148 1.014302,-0.45719 0.996279,-0.87474 1.922415,-1.01495 2.772269,-0.41969 0.644179,0.4512 0.76812,1.13273 0.852376,4.68711 l 0.06504,2.74344 -1.584925,1.8e-4 -1.584926,1.8e-4 0.07519,-2.77303 c 0.06266,-2.31089 0.01304,-2.79688 -0.297738,-2.91614 -0.205108,-0.0787 -0.54746,0.0314 -0.760779,0.24476 -0.315653,0.31565 -0.373707,0.85851 -0.31185,2.91616 l 0.076,2.52832 -1.584925,-2.4e-4 -1.584925,-2.4e-4 0.08341,-2.56946 c 0.09174,-2.82615 -0.119042,-3.47695 -0.977346,-3.0176 -0.436428,0.23356 -0.470525,0.4819 -0.401106,2.92139 l 0.07586,2.66611 -1.77638,-4.9e-4 c -1.732298,-4.9e-4 -1.769539,-0.0133 -1.500704,-0.5156 z m -17.692694,-8.18044 c 0.402326,-0.21211 0.975522,-0.60818 1.273768,-0.88019 0.513648,-0.46844 0.55118,-0.47131 0.711207,-0.0543 0.243337,0.63413 -0.730222,1.34197 -1.829112,1.32988 l -0.887367,-0.01 z m 14.264326,-0.0825 c -1.049186,-1.0492 -0.340757,-2.68219 1.163588,-2.68219 1.360109,0 2.013406,1.6997 1.030923,2.68219 -0.268217,0.26821 -0.761982,0.48766 -1.097256,0.48766 -0.335272,0 -0.829037,-0.21945 -1.097255,-0.48766 z"
       id="path1" /></g></svg>
